<svg xmlns="http://www.w3.org/2000/svg" viewBox="0 0 320 200" fill="none">
  <!-- API endpoint visual -->
  <rect x="60" y="40" width="200" height="30" rx="6" fill="#1e293b"/>
  <text x="80" y="60" font-size="11" fill="#22c55e" font-family="monospace">GET</text>
  <rect x="110" y="50" width="100" height="10" rx="3" fill="#334155"/>
  <rect x="60" y="78" width="200" height="30" rx="6" fill="#1e293b"/>
  <text x="80" y="98" font-size="11" fill="#3b82f6" font-family="monospace">POST</text>
  <rect x="114" y="88" width="100" height="10" rx="3" fill="#334155"/>
  <rect x="60" y="116" width="200" height="30" rx="6" fill="#1e293b"/>
  <text x="80" y="136" font-size="11" fill="#f59e0b" font-family="monospace">PUT</text>
  <rect x="110" y="126" width="100" height="10" rx="3" fill="#334155"/>
  <!-- Status badges -->
  <rect x="220" y="48" width="30" height="14" rx="7" fill="#22c55e" opacity="0.3"/>
  <text x="235" y="58" text-anchor="middle" font-size="8" fill="#22c55e" font-family="system-ui">200</text>
  <rect x="220" y="86" width="30" height="14" rx="7" fill="#3b82f6" opacity="0.3"/>
  <text x="235" y="96" text-anchor="middle" font-size="8" fill="#3b82f6" font-family="system-ui">201</text>
  <rect x="220" y="124" width="30" height="14" rx="7" fill="#f59e0b" opacity="0.3"/>
  <text x="235" y="134" text-anchor="middle" font-size="8" fill="#f59e0b" font-family="system-ui">200</text>
  <!-- Test indicator -->
  <rect x="100" y="160" width="120" height="24" rx="12" fill="#22c55e" opacity="0.1" stroke="#22c55e" stroke-width="1"/>
  <text x="160" y="176" text-anchor="middle" font-size="10" fill="#22c55e" font-family="system-ui">✓ All Tests Passing</text>
</svg>
